<?xml version="1.0" encoding="UTF-8" standalone="no"?>
<!-- Generator: Adobe Illustrator 16.2.0, SVG Export Plug-In . SVG Version: 6.00 Build 0)  -->

<svg
   xmlns:dc="http://purl.org/dc/elements/1.1/"
   xmlns:cc="http://creativecommons.org/ns#"
   xmlns:rdf="http://www.w3.org/1999/02/22-rdf-syntax-ns#"
   xmlns:svg="http://www.w3.org/2000/svg"
   xmlns="http://www.w3.org/2000/svg"
   xmlns:xlink="http://www.w3.org/1999/xlink"
   xmlns:sodipodi="http://sodipodi.sourceforge.net/DTD/sodipodi-0.dtd"
   xmlns:inkscape="http://www.inkscape.org/namespaces/inkscape"
   version="1.1"
   id="Layer_1"
   x="0px"
   y="0px"
   width="640px"
   height="480px"
   viewBox="0 0 640 480"
   enable-background="new 0 0 640 480"
   xml:space="preserve"
   inkscape:version="0.48.4 r9939"
   sodipodi:docname="lm_splash.svg"><metadata
     id="metadata114"><rdf:RDF><cc:Work
         rdf:about=""><dc:format>image/svg+xml</dc:format><dc:type
           rdf:resource="http://purl.org/dc/dcmitype/StillImage" /><dc:title></dc:title></cc:Work></rdf:RDF></metadata><defs
     id="defs112" /><sodipodi:namedview
     pagecolor="#ffffff"
     bordercolor="#666666"
     borderopacity="1"
     objecttolerance="10"
     gridtolerance="10"
     guidetolerance="10"
     inkscape:pageopacity="0"
     inkscape:pageshadow="2"
     inkscape:window-width="640"
     inkscape:window-height="480"
     id="namedview110"
     showgrid="false"
     inkscape:zoom="0.63378906"
     inkscape:cx="320"
     inkscape:cy="240"
     inkscape:window-x="0"
     inkscape:window-y="27"
     inkscape:window-maximized="0"
     inkscape:current-layer="Layer_1" /><g
     id="g3"><g
       id="g5"><linearGradient
         id="SVGID_1_"
         gradientUnits="userSpaceOnUse"
         x1="320.0005"
         y1="480"
         x2="320.0005"
         y2="4.882813e-004"><stop
           offset="0"
           style="stop-color:#767676"
           id="stop8" /><stop
           offset="1"
           style="stop-color:#5B5B5B"
           id="stop10" /></linearGradient><rect
         fill="url(#SVGID_1_)"
         width="640"
         height="480"
         id="rect12" /><linearGradient
         id="SVGID_2_"
         gradientUnits="userSpaceOnUse"
         x1="320.0005"
         y1="480"
         x2="320.0005"
         y2="4.882813e-004"><stop
           offset="0"
           style="stop-color:#363636"
           id="stop15" /><stop
           offset="1"
           style="stop-color:#494949"
           id="stop17" /></linearGradient><rect
         fill="url(#SVGID_2_)"
         width="640"
         height="480"
         id="rect19" /></g><defs
       id="defs21"><filter
         id="Adobe_OpacityMaskFilter"
         filterUnits="userSpaceOnUse"
         x="0"
         y="0"
         width="640"
         height="480"><feColorMatrix
           type="matrix"
           values="-1 0 0 0 1  0 -1 0 0 1  0 0 -1 0 1  0 0 0 1 0"
           color-interpolation-filters="sRGB"
           result="source"
           id="feColorMatrix24" /></filter></defs><mask
       maskUnits="userSpaceOnUse"
       x="0"
       y="0"
       width="640"
       height="480"
       id="SVGID_3_"><g
         filter="url(#Adobe_OpacityMaskFilter)"
         id="g27"><image
           overflow="visible"
           width="644"
           height="484"
           xlink:href="/tmp/968EF482.jpg"
           transform="matrix(1 0 0 1 -2 -2)"
           id="image29"
           sodipodi:absref="/tmp/968EF482.jpg" /></g></mask><g
       opacity="0"
       mask="url(#SVGID_3_)"
       id="g31"><rect
         width="640"
         height="480"
         id="rect33" /><rect
         width="640"
         height="480"
         id="rect35" /></g></g><g
     id="g37"><linearGradient
       id="SVGID_4_"
       gradientUnits="userSpaceOnUse"
       x1="-371.8706"
       y1="676.9951"
       x2="-428.8713"
       y2="743.9958"
       gradientTransform="matrix(1 0 0 -1 579.1602 933.4004)"><stop
         offset="0"
         style="stop-color:#6E921C"
         id="stop40" /><stop
         offset="1"
         style="stop-color:#ABD05C"
         id="stop42" /></linearGradient><path
       fill="url(#SVGID_4_)"
       d="M170.975,197.01c2.014-0.545,3.708-0.816,3.797-0.825v-5.639l-5.318-0.479v-8.72   c0,0,3.883-0.967,9.692-0.967c6.198,0,9.687,0.967,9.687,0.967v8.722l-5.229,0.469v5.646c0.103,0.006,1.258,0.117,3.816,0.802   c2.555,0.688,3.84,1.25,3.84,1.25c11.625,4.756,19.829,16.17,19.829,29.507c0,17.605-14.271,31.877-31.869,31.877   c-8.826,0-16.814-3.59-22.585-9.393l6.023-7.602c4.074,4.527,9.979,7.383,16.558,7.383c12.297,0,22.269-9.963,22.269-22.264   c0-12.3-9.972-22.268-22.269-22.268c-12.286,0-22.243,9.949-22.27,22.223h9.076l-13.769,17.359l-13.742-17.359h8.837   c0.005-5.775,1.553-11.196,4.256-15.871l-4.384-3.354l-2.116,2.028l-5.701-4.367c0,0-0.354-1.407,2.488-5.479   c2.163-3.104,4.737-3.965,4.737-3.965l5.697,4.367l-1.408,2.559l4.227,3.242c3.335-3.847,7.58-6.878,12.397-8.771   C167.542,198.088,168.958,197.559,170.975,197.01z"
       id="path44" /><g
       id="g46"><path
         fill="#F3F3F3"
         d="M236.116,215.412h4.332v20.698h12.959v3.941h-17.291V215.412L236.116,215.412z"
         id="path48" /><path
         fill="#F3F3F3"
         d="M255.411,227.805v-0.074c0-6.934,5.354-12.743,12.922-12.743c7.564,0,12.851,5.738,12.851,12.674v0.068    c0,6.939-5.351,12.742-12.917,12.742C260.688,240.473,255.411,234.736,255.411,227.805z M276.64,227.805v-0.074    c0-4.785-3.485-8.77-8.378-8.77c-4.896,0-8.313,3.911-8.313,8.698v0.068c0,4.791,3.485,8.73,8.383,8.73    C273.222,236.461,276.64,232.588,276.64,227.805z"
         id="path50" /><path
         fill="#F3F3F3"
         d="M286.424,215.412h4.009l13.204,17.036v-17.036h4.26v24.643h-3.625l-13.594-17.531v17.531h-4.254V215.412    L286.424,215.412z"
         id="path52" /><path
         fill="#F3F3F3"
         d="M313.139,227.805v-0.074c0-6.9,5.283-12.743,12.714-12.743c4.295,0,6.934,1.196,9.465,3.342l-2.744,3.274    c-1.896-1.618-3.768-2.643-6.895-2.643c-4.545,0-7.996,3.981-7.996,8.698v0.068c0,5.07,3.343,8.801,8.378,8.801    c2.328,0,4.438-0.736,5.951-1.859v-4.617h-6.305v-3.768h10.49v10.354c-2.432,2.078-5.916,3.834-10.275,3.834    C318.207,240.473,313.139,234.982,313.139,227.805z"
         id="path54" /><path
         fill="#F3F3F3"
         d="M340.738,227.805v-0.074c0-6.934,5.354-12.743,12.926-12.743c7.564,0,12.85,5.738,12.85,12.674v0.068    c0,6.939-5.354,12.742-12.92,12.742C346.02,240.473,340.738,234.736,340.738,227.805z M361.969,227.805v-0.074    c0-4.785-3.486-8.77-8.379-8.77c-4.896,0-8.313,3.911-8.313,8.698v0.068c0,4.791,3.484,8.73,8.381,8.73    C358.555,236.461,361.969,232.588,361.969,227.805z"
         id="path56" /><path
         fill="#F3F3F3"
         d="M372.273,213.97h2.982l9.496,14.229l9.508-14.229h2.979v26.081h-2.941v-21.126l-9.498,13.976h-0.15    l-9.502-13.938v21.09h-2.869L372.273,213.97L372.273,213.97z"
         id="path58" /><path
         fill="#F3F3F3"
         d="M414.264,213.782h2.756l11.895,26.271h-3.17l-3.059-6.895h-14.197l-3.09,6.895h-3.021L414.264,213.782z     M421.531,230.477l-5.922-13.267l-5.965,13.267H421.531z"
         id="path60" /><path
         fill="#F3F3F3"
         d="M437.584,216.686h-8.752v-2.717h20.492v2.717h-8.754v23.365h-2.986V216.686z"
         id="path62" /><path
         fill="#F3F3F3"
         d="M451.896,227.084v-0.07c0-7.382,5.516-13.493,13.188-13.493c4.734,0,7.564,1.675,10.178,4.137    l-2.012,2.161c-2.197-2.089-4.66-3.578-8.197-3.578c-5.775,0-10.104,4.696-10.104,10.697v0.076    c0,6.039,4.361,10.768,10.104,10.768c3.572,0,5.926-1.377,8.42-3.762l1.938,1.896c-2.719,2.76-5.701,4.59-10.432,4.59    C457.451,240.502,451.896,234.574,451.896,227.084z"
         id="path64" /><path
         fill="#F3F3F3"
         d="M480.551,213.97h2.945v11.586h15.053V213.97h2.939v26.081h-2.939v-11.736h-15.053v11.736h-2.945V213.97z"
         id="path66" /></g></g></svg>