<?xml version="1.0" encoding="utf-8"?>
<!-- Generator: Adobe Illustrator 16.0.0, SVG Export Plug-In . SVG Version: 6.00 Build 0)  -->
<!DOCTYPE svg PUBLIC "-//W3C//DTD SVG 1.1//EN" "http://www.w3.org/Graphics/SVG/1.1/DTD/svg11.dtd">
<svg version="1.1" id="Calque_1" xmlns="http://www.w3.org/2000/svg" xmlns:xlink="http://www.w3.org/1999/xlink" x="0px" y="0px"
	 width="36px" height="36px" viewBox="0 0 36 36" enable-background="new 0 0 36 36" xml:space="preserve">
<g id="zoom-in_1_">
	<path fill-rule="evenodd" clip-rule="evenodd" fill="#6B6B6A" d="M30.682,27.124l-5.337-5.338c-0.199-0.199-0.435-0.33-0.674-0.447
		c1.081-1.693,1.716-3.697,1.716-5.855c0-6.02-4.881-10.901-10.902-10.901S4.582,9.464,4.582,15.483
		c0,6.022,4.882,10.903,10.903,10.903c2.157,0,4.162-0.636,5.853-1.718c0.119,0.24,0.249,0.475,0.448,0.676l5.337,5.337
		c0.983,0.982,2.575,0.982,3.559,0C31.664,29.698,31.664,28.105,30.682,27.124z M15.485,23.031c-4.169,0-7.548-3.378-7.548-7.548
		c0-4.168,3.379-7.547,7.548-7.547c4.167,0,7.547,3.379,7.547,7.547C23.032,19.653,19.652,23.031,15.485,23.031z"/>
	<path fill-rule="evenodd" clip-rule="evenodd" fill="#50B34B" d="M17.162,13.808v-3.355c0-0.462-0.375-0.839-0.839-0.839h-1.677
		c-0.464,0-0.839,0.377-0.839,0.839v3.355h-3.355c-0.463,0-0.838,0.375-0.838,0.838v1.678c0,0.462,0.375,0.838,0.838,0.838h3.355
		v3.354c0,0.464,0.375,0.839,0.839,0.839h1.677c0.463,0,0.839-0.375,0.839-0.839v-3.354h3.354c0.463,0,0.839-0.376,0.839-0.838
		v-1.678c0-0.463-0.376-0.838-0.839-0.838H17.162z"/>
</g>
</svg>
