<?xml version="1.0" encoding="utf-8"?>
<!-- Generator: Adobe Illustrator 16.0.0, SVG Export Plug-In . SVG Version: 6.00 Build 0)  -->
<!DOCTYPE svg PUBLIC "-//W3C//DTD SVG 1.1//EN" "http://www.w3.org/Graphics/SVG/1.1/DTD/svg11.dtd">
<svg version="1.1" id="Calque_1" xmlns="http://www.w3.org/2000/svg" xmlns:xlink="http://www.w3.org/1999/xlink" x="0px" y="0px"
	 width="36px" height="36px" viewBox="0 0 36 36" enable-background="new 0 0 36 36" xml:space="preserve">
<g>
	<path fill="#6A6A6A" d="M24.469,15.292l2.441-2.442c-0.43-0.511-0.902-0.983-1.414-1.414l-2.441,2.442
		C23.582,14.291,24.055,14.766,24.469,15.292z"/>
	<path fill="#6A6A6A" d="M29.598,19.346h-3.449c0.039,0.328,0.066,0.66,0.066,1c0,0.339-0.027,0.672-0.066,1h3.449
		c0.029-0.33,0.051-0.662,0.051-1S29.627,19.676,29.598,19.346z"/>
	<path fill="#6A6A6A" d="M18,12.13c0.34,0,0.672,0.026,1,0.067v-3.45c-0.33-0.028-0.662-0.05-1-0.05
		c-0.337,0-0.669,0.021-0.999,0.05v3.45C17.329,12.156,17.661,12.13,18,12.13z"/>
	<path fill="#6A6A6A" d="M12.946,13.877l-2.441-2.441c-0.512,0.43-0.984,0.902-1.414,1.414l2.441,2.441
		C11.945,14.764,12.42,14.29,12.946,13.877z"/>
	<path fill="#6A6A6A" d="M9.785,20.346c0-0.34,0.026-0.672,0.066-1H6.402c-0.028,0.33-0.051,0.662-0.051,1s0.022,0.67,0.051,1h3.45
		C9.813,21.018,9.785,20.685,9.785,20.346z"/>
	<path fill="#6A6A6A" d="M27.342,28.803c-0.313,0-0.627-0.097-0.895-0.298c-0.664-0.495-0.801-1.435-0.307-2.099
		c1.314-1.762,2.008-3.857,2.008-6.061c0-5.596-4.553-10.148-10.148-10.148S7.852,14.75,7.852,20.346
		c0,2.203,0.693,4.298,2.006,6.059c0.495,0.664,0.358,1.604-0.306,2.1c-0.665,0.494-1.604,0.357-2.099-0.307
		c-1.702-2.283-2.602-4.998-2.602-7.852c0-7.25,5.898-13.148,13.148-13.148s13.148,5.898,13.148,13.148
		c0,2.855-0.9,5.57-2.604,7.854C28.252,28.594,27.799,28.803,27.342,28.803z"/>
	<path fill="#50B44D" d="M18.173,23.723c-0.403,0-0.807-0.153-1.113-0.461c-0.614-0.614-0.614-1.61,0-2.226
		c0,0,6.972-5.975,7.585-5.359c0.615,0.614-5.359,7.585-5.359,7.585C18.979,23.569,18.574,23.723,18.173,23.723z"/>
	<circle fill="#50B44D" cx="18" cy="22.174" r="2.496"/>
</g>
</svg>
