<?xml version="1.0" encoding="utf-8"?>
<!-- Generator: Adobe Illustrator 16.0.0, SVG Export Plug-In . SVG Version: 6.00 Build 0)  -->
<!DOCTYPE svg PUBLIC "-//W3C//DTD SVG 1.1//EN" "http://www.w3.org/Graphics/SVG/1.1/DTD/svg11.dtd">
<svg version="1.1" id="Calque_1" xmlns="http://www.w3.org/2000/svg" xmlns:xlink="http://www.w3.org/1999/xlink" x="0px" y="0px"
	 width="36px" height="36px" viewBox="0 0 36 36" enable-background="new 0 0 36 36" xml:space="preserve">
<g id="Layer_1">
</g>
<g>
	<path fill="#6B6B6A" d="M21.58,12.104v11.104H3.065V12.104H21.58 M21.58,10.104H3.065c-1.1,0-2,0.9-2,2v11.104c0,1.1,0.9,2,2,2
		H21.58c1.1,0,2-0.9,2-2V12.104C23.58,11.003,22.68,10.104,21.58,10.104L21.58,10.104z"/>
</g>
<g>
	<g>
		<path fill="#6B6B6A" d="M34.236,9.876c0,1.1-0.9,2-2,2h-5.219c-1.1,0-2-0.9-2-2V7.382c0-1.1,0.9-2,2-2h5.219c1.1,0,2,0.9,2,2
			V9.876z"/>
		<path fill="none" stroke="#66A33A" stroke-miterlimit="10" d="M34.236,9.876c0,1.1-0.9,2-2,2h-5.219c-1.1,0-2-0.9-2-2V7.382
			c0-1.1,0.9-2,2-2h5.219c1.1,0,2,0.9,2,2V9.876z"/>
	</g>
	<g>
		<path fill="#6B6B6A" d="M34.236,18.901c0,1.1-0.9,2-2,2h-5.219c-1.1,0-2-0.9-2-2v-2.493c0-1.1,0.9-2,2-2h5.219c1.1,0,2,0.9,2,2
			V18.901z"/>
		<path fill="none" stroke="#66A33A" stroke-miterlimit="10" d="M34.236,18.901c0,1.1-0.9,2-2,2h-5.219c-1.1,0-2-0.9-2-2v-2.493
			c0-1.1,0.9-2,2-2h5.219c1.1,0,2,0.9,2,2V18.901z"/>
	</g>
	<g>
		<path fill="#6B6B6A" d="M34.236,27.928c0,1.1-0.9,2-2,2h-5.219c-1.1,0-2-0.9-2-2v-2.494c0-1.1,0.9-2,2-2h5.219c1.1,0,2,0.9,2,2
			V27.928z"/>
		<path fill="none" stroke="#66A33A" stroke-miterlimit="10" d="M34.236,27.928c0,1.1-0.9,2-2,2h-5.219c-1.1,0-2-0.9-2-2v-2.494
			c0-1.1,0.9-2,2-2h5.219c1.1,0,2,0.9,2,2V27.928z"/>
	</g>
</g>
</svg>
