<?xml version="1.0" encoding="UTF-8"?>
<svg width="43px" height="46px" viewBox="0 0 43 46" version="1.1" xmlns="http://www.w3.org/2000/svg" xmlns:xlink="http://www.w3.org/1999/xlink">
    <!-- Generator: Sketch 46.2 (44496) - http://www.bohemiancoding.com/sketch -->
    <title>icons/vas-control-trim-right-active</title>
    <desc>Created with Sketch.</desc>
    <defs></defs>
    <g id="Icons" stroke="none" stroke-width="1" fill="none" fill-rule="evenodd">
        <g id="Tablet-Portrait" transform="translate(-131.000000, -236.000000)">
            <g id="icons/vas-control-trim-right-active" transform="translate(131.000000, 234.000000)">
                <g id="tl_trim_right_active" transform="translate(-1.000000, 1.000000)">
                    <g id="Group">
                        <path d="M28.962963,22.4614737 C32.9976296,22.4614737 33.5668148,20.2383158 33.5668148,18.2450526 C33.5668148,16.6484211 33.3351111,15.0543158 33.1084444,13.5157895 C32.8817778,11.8610526 32.6525926,10.2669474 32.6525926,8.72842105 C32.6525926,3.48378947 36.1180741,1.26315789 40.9485926,1.26315789 L42.0819259,1.26315789 L42.0819259,4.39578947 L41.1198519,4.39578947 C37.7677037,4.45389474 36.5764444,6.22231579 36.5764444,9.29684211 C36.5764444,10.608 36.8031111,11.9772632 36.9693333,13.344 C37.201037,14.7688421 37.4277037,16.1355789 37.4277037,17.6741053 C37.4277037,21.3195789 35.8334815,23.1461053 33.2797037,23.8307368 L33.2797037,23.9418947 C35.836,24.6265263 37.4856296,26.5061053 37.4277037,30.1541053 C37.4277037,31.6926316 37.201037,33.1174737 36.9693333,34.5423158 C36.8031111,35.9090526 36.5764444,37.2783158 36.5764444,38.6450526 C36.5764444,41.8357895 37.938963,43.5435789 41.1198519,43.6016842 L42.0844444,43.6016842 L42.0844444,46.7368421 L40.8931852,46.7368421 C36.2314074,46.7368421 32.6551111,44.6829474 32.6551111,38.928 C32.6551111,37.3894737 32.8842963,35.7953684 33.110963,34.2568421 C33.3376296,32.6576842 33.5693333,31.1216842 33.5693333,29.6387368 C33.5114074,27.8172632 32.9447407,25.3667368 28.9654815,25.3667368 L28.9654815,22.4614737 L28.962963,22.4614737 Z" id="Shape" fill="#50B34B" fill-rule="nonzero"></path>
                        <polygon id="Shape" fill="#50B34B" points="36.2666667 32.6854737 4.83303704 23.7423158 4.83303704 23.7423158 35.5237037 15.1755789 33.2797037 23.9418947"></polygon>
                        <ellipse id="Oval" fill="#50B44D" cx="11.0084444" cy="23.7423158" rx="9.74918519" ry="9.77936842"></ellipse>
                    </g>
                    <rect id="Rectangle-path" fill="#C42527" fill-rule="nonzero" x="40.4952593" y="1.26315789" width="3.36977778" height="45.4736842"></rect>
                </g>
            </g>
        </g>
    </g>
</svg>