<?xml version="1.0" encoding="utf-8"?>
<!-- Generator: Adobe Illustrator 16.2.0, SVG Export Plug-In . SVG Version: 6.00 Build 0)  -->
<!DOCTYPE svg PUBLIC "-//W3C//DTD SVG 1.1//EN" "http://www.w3.org/Graphics/SVG/1.1/DTD/svg11.dtd">
<svg version="1.1" id="Layer_1" xmlns="http://www.w3.org/2000/svg" xmlns:xlink="http://www.w3.org/1999/xlink" x="0px" y="0px"
	 width="18px" height="18px" viewBox="0 0 18 18" enable-background="new 0 0 18 18" xml:space="preserve">
<g>
	<path fill="#6B6B6A" d="M16.815,14.57c-0.159,0.256-0.448,0.411-0.757,0.411H1.943c-0.306,0-0.591-0.152-0.753-0.404
		c-0.161-0.252-0.176-0.566-0.04-0.832L6.392,3.593c0.181-0.351,0.56-0.574,0.987-0.574c0.44,0,0.824,0.233,1.001,0.609l2.246,4.781
		l0.694-1.285c0.151-0.282,0.582-0.539,0.912-0.539c0.329,0,0.664,0.154,0.945,0.433c0.06,0.061,0.111,0.127,0.15,0.201l3.515,6.515
		C16.989,13.998,16.976,14.316,16.815,14.57z"/>
	<path fill="#242627" d="M16.059,16H1.943c-0.678,0-1.295-0.332-1.651-0.887c-0.355-0.557-0.389-1.237-0.088-1.822L5.446,3.139
		C5.807,2.437,6.548,2,7.379,2c0.86,0,1.612,0.462,1.963,1.207l1.402,2.985c0.398-0.376,0.963-0.625,1.489-0.625
		c0.616,0,1.221,0.264,1.702,0.742c0.132,0.132,0.242,0.278,0.329,0.435l3.517,6.522c0.313,0.572,0.289,1.277-0.064,1.836
		C17.372,15.656,16.735,16,16.059,16z M7.379,3.019c-0.427,0-0.805,0.22-0.987,0.573L1.15,13.745
		c-0.137,0.267-0.122,0.577,0.041,0.832c0.162,0.253,0.444,0.404,0.752,0.404h14.116c0.309,0,0.598-0.155,0.756-0.408
		c0.161-0.256,0.172-0.576,0.029-0.837l-3.515-6.52c-0.039-0.071-0.091-0.138-0.153-0.2c-0.279-0.278-0.614-0.431-0.942-0.431
		c-0.332,0-0.757,0.251-0.912,0.538l-0.694,1.286L8.381,3.627C8.204,3.252,7.821,3.019,7.379,3.019z"/>
</g>
</svg>
