<?xml version="1.0" encoding="utf-8"?>
<!-- Generator: Adobe Illustrator 16.0.0, SVG Export Plug-In . SVG Version: 6.00 Build 0)  -->
<!DOCTYPE svg PUBLIC "-//W3C//DTD SVG 1.1//EN" "http://www.w3.org/Graphics/SVG/1.1/DTD/svg11.dtd">
<svg version="1.1" id="Calque_1" xmlns="http://www.w3.org/2000/svg" xmlns:xlink="http://www.w3.org/1999/xlink" x="0px" y="0px"
	 width="36px" height="36px" viewBox="0 0 36 36" enable-background="new 0 0 36 36" xml:space="preserve">
<path id="rewind-forward_1_" fill-rule="evenodd" clip-rule="evenodd" fill="#6B6B6A" d="M5.135,19.188l11.439,10.062
	c0.548,0.48,1.363,0.624,2.078,0.362c0.715-0.259,1.038-0.872,1.038-1.55v-6.449l8.471,7.637c0.548,0.48,1.366,0.624,2.079,0.362
	c0.713-0.259,1.178-0.872,1.178-1.55V7.937c0-0.68-0.465-1.291-1.178-1.549c-0.713-0.261-1.531-0.116-2.079,0.36l-8.471,7.638V7.937
	c0-0.68-0.323-1.291-1.038-1.549c-0.715-0.261-1.53-0.116-2.078,0.36L5.135,16.813c-0.369,0.329-0.553,0.756-0.553,1.185
	C4.582,18.43,4.766,18.857,5.135,19.188z"/>
</svg>
