<?xml version="1.0" encoding="utf-8"?>
<!-- Generator: Adobe Illustrator 15.1.0, SVG Export Plug-In . SVG Version: 6.00 Build 0)  -->
<!DOCTYPE svg PUBLIC "-//W3C//DTD SVG 1.1//EN" "http://www.w3.org/Graphics/SVG/1.1/DTD/svg11.dtd">
<svg version="1.1" id="Layer_1" xmlns="http://www.w3.org/2000/svg" xmlns:xlink="http://www.w3.org/1999/xlink" x="0px" y="0px"
	 width="28px" height="28px" viewBox="3 -2 28 28" enable-background="new 3 -2 28 28" xml:space="preserve">
<g>
	<path fill="#6B6B6A" d="M18.326,2.076l-6.317,5.471H5.805C4.808,7.547,4,8.44,4,9.542v4.667c0,1.1,0.808,1.994,1.805,1.994h5.917
		l6.605,5.721V2.076z"/>
</g>
<path id="cross" fill="#D33B37" d="M24.096,10.627l-2.183-2.182c-0.125-0.126-0.331-0.125-0.458,0.001l-0.913,0.915
	c-0.064,0.062-0.097,0.146-0.097,0.228c0.002,0.082,0.032,0.166,0.097,0.229l2.18,2.182l-2.182,2.182
	c-0.127,0.127-0.125,0.331,0.001,0.457l0.914,0.915c0.063,0.063,0.146,0.096,0.227,0.096c0.083,0,0.166-0.032,0.229-0.096
	l2.182-2.181l2.182,2.181c0.128,0.127,0.33,0.126,0.456,0l0.915-0.914c0.062-0.063,0.093-0.146,0.093-0.228
	c0.001-0.084-0.028-0.167-0.093-0.229l-2.181-2.183l2.181-2.18c0.126-0.127,0.126-0.331,0-0.457l-0.914-0.915
	c-0.063-0.063-0.146-0.095-0.229-0.094c-0.082-0.001-0.165,0.032-0.228,0.094L24.096,10.627z"/>
</svg>
