<?xml version="1.0" encoding="utf-8"?>
<!-- Generator: Adobe Illustrator 16.0.0, SVG Export Plug-In . SVG Version: 6.00 Build 0)  -->
<!DOCTYPE svg PUBLIC "-//W3C//DTD SVG 1.1//EN" "http://www.w3.org/Graphics/SVG/1.1/DTD/svg11.dtd">
<svg version="1.1" id="Calque_1" xmlns="http://www.w3.org/2000/svg" xmlns:xlink="http://www.w3.org/1999/xlink" x="0px" y="0px"
	 width="36px" height="36px" viewBox="0 0 36 36" enable-background="new 0 0 36 36" xml:space="preserve">
<g>
	<g id="Layer_1">
	</g>
	<path fill-rule="evenodd" clip-rule="evenodd" fill="#6B6B6A" d="M32.99,15.252L24.939,4.284c-0.193-0.234-0.451-0.357-0.712-0.357
		c-0.13,0-0.261,0.029-0.386,0.093c-0.375,0.188-0.621,0.633-0.621,1.126l0.002,6.094h-0.002c-0.011,0-20.691-1.787-21.519,20.833
		C7.79,14.606,23.221,20.988,23.221,20.988v6.094c0,0.492,0.245,0.938,0.621,1.125c0.125,0.064,0.256,0.094,0.386,0.094
		c0.261,0,0.519-0.123,0.712-0.357l8.051-10.968c0.196-0.238,0.295-0.55,0.295-0.861C33.285,15.801,33.187,15.491,32.99,15.252z"/>
	<circle fill-rule="evenodd" clip-rule="evenodd" fill="#50B34B" cx="15.088" cy="26.441" r="3.625"/>
	<path fill="#50B34B" d="M34.549,23.324c-0.553,0-1-0.447-1-1V9.75c0-0.552,0.447-1,1-1s1,0.448,1,1v12.575
		C35.549,22.877,35.102,23.324,34.549,23.324z"/>
</g>
</svg>
