<?xml version="1.0" encoding="utf-8"?>
<!-- Generator: Adobe Illustrator 16.0.0, SVG Export Plug-In . SVG Version: 6.00 Build 0)  -->
<!DOCTYPE svg PUBLIC "-//W3C//DTD SVG 1.1//EN" "http://www.w3.org/Graphics/SVG/1.1/DTD/svg11.dtd">
<svg version="1.1" id="Calque_1" xmlns="http://www.w3.org/2000/svg" xmlns:xlink="http://www.w3.org/1999/xlink" x="0px" y="0px"
	 width="36px" height="36px" viewBox="0 0 36 36" enable-background="new 0 0 36 36" xml:space="preserve">
<g>
	<path fill-rule="evenodd" clip-rule="evenodd" fill="#6A6A6A" d="M32.018,27.24c-0.678,1.615-1.908,2.138-3.619,2.087
		c-2.994-0.091-5.994-0.02-8.992-0.028c-2.139-0.005-3.039-0.913-3.052-3.057c-0.006-0.931-0.001-1.861-0.001-2.876
		c1.089,0,2.116,0,3.144,0c0.041,0.066,0.107,0.128,0.113,0.192c0.166,2.333,0.166,2.334,2.566,2.333
		c1.789,0,3.582-0.025,5.371,0.011c0.76,0.015,1.021-0.262,1.018-1.02c-0.023-4.633-0.023-9.266,0-13.899
		c0.004-0.773-0.309-1.031-1.039-1.024c-2.104,0.021-4.205,0.001-6.309,0.006c-1.531,0.003-1.547,0.027-1.568,1.573
		c-0.004,0.307,0,0.613,0,1.005c-1.104,0-2.13,0-3.266,0c0-1.292-0.072-2.567,0.022-3.831c0.084-1.123,1.069-2.012,2.212-2.023
		c3.658-0.037,7.32-0.013,10.979-0.016c1.297,0,1.828,0.977,2.422,1.876C32.018,14.78,32.018,21.01,32.018,27.24z"/>
	<path fill-rule="evenodd" clip-rule="evenodd" fill="#C42527" d="M3.983,17.662C6,15.727,8.018,13.79,10.037,11.857
		c0.479-0.458,0.916-0.99,1.469-1.325c0.377-0.229,0.993-0.348,1.377-0.198c0.316,0.124,0.595,0.704,0.632,1.106
		c0.091,0.957,0.03,1.927,0.03,3.056c1.926,0,3.741-0.001,5.557,0c1.012,0,2.023-0.029,3.035,0.01
		c1.32,0.052,1.896,0.661,1.914,1.975c0.014,1.012,0.018,2.024-0.006,3.035c-0.027,1.247-0.625,1.848-1.881,1.855
		c-2.799,0.017-5.6,0.005-8.618,0.005c0,1.012,0.075,1.972-0.031,2.913c-0.054,0.471-0.333,1.123-0.695,1.292
		c-0.364,0.168-1.102-0.008-1.43-0.304c-2.503-2.268-4.946-4.602-7.408-6.915C3.983,18.129,3.983,17.896,3.983,17.662z"/>
</g>
</svg>
