<?xml version="1.0" encoding="utf-8"?>
<!-- Generator: Adobe Illustrator 16.0.0, SVG Export Plug-In . SVG Version: 6.00 Build 0)  -->
<!DOCTYPE svg PUBLIC "-//W3C//DTD SVG 1.1//EN" "http://www.w3.org/Graphics/SVG/1.1/DTD/svg11.dtd">
<svg version="1.1" id="Calque_1" xmlns="http://www.w3.org/2000/svg" xmlns:xlink="http://www.w3.org/1999/xlink" x="0px" y="0px"
	 width="36px" height="36px" viewBox="0 0 36 36" enable-background="new 0 0 36 36" xml:space="preserve">
<path id="rewind-forward_1_" fill-rule="evenodd" clip-rule="evenodd" fill="#6B6B6A" d="M30.865,16.813L19.426,6.751
	c-0.548-0.48-1.363-0.624-2.078-0.362c-0.715,0.259-1.039,0.872-1.039,1.55v6.449L7.839,6.751c-0.548-0.48-1.367-0.624-2.08-0.362
	c-0.712,0.259-1.177,0.872-1.177,1.55v20.125c0,0.68,0.465,1.291,1.177,1.549c0.713,0.261,1.531,0.116,2.08-0.36l8.471-7.638v6.449
	c0,0.68,0.324,1.291,1.039,1.549c0.714,0.261,1.53,0.116,2.078-0.36l11.439-10.065c0.369-0.329,0.553-0.756,0.553-1.185
	C31.418,17.57,31.234,17.143,30.865,16.813z"/>
</svg>
