<?xml version="1.0" encoding="UTF-8"?>
<svg width="42px" height="46px" viewBox="0 0 42 46" version="1.1" xmlns="http://www.w3.org/2000/svg" xmlns:xlink="http://www.w3.org/1999/xlink">
    <!-- Generator: Sketch 46.2 (44496) - http://www.bohemiancoding.com/sketch -->
    <title>icons/vas-control-trim-left-inactive</title>
    <desc>Created with Sketch.</desc>
    <defs></defs>
    <g id="Icons" stroke="none" stroke-width="1" fill="none" fill-rule="evenodd">
        <g id="Tablet-Portrait" transform="translate(-378.000000, -235.000000)">
            <g id="icons/vas-control-trim-left-inactive" transform="translate(377.000000, 234.000000)">
                <g id="tl_trim_left_inactive" transform="translate(0.000000, 1.000000)">
                    <g id="Group" fill-rule="nonzero">
                        <path d="M14.8028235,24.1541053 C10.8373333,24.1541053 10.2751373,26.6071579 10.214902,28.4235789 C10.214902,29.9065263 10.4458039,31.44 10.6741961,33.0416842 C10.9000784,34.5776842 11.1259608,36.1717895 11.1259608,37.7128421 C11.1259608,43.4677895 7.55952941,45.5242105 2.91639216,45.5242105 L1.7267451,45.5242105 L1.7267451,42.3865263 L2.688,42.3865263 C5.86039216,42.3334737 7.21819608,40.6231579 7.21819608,37.4324211 C7.21819608,36.0656842 6.99231373,34.6938947 6.82415686,33.3271579 C6.5932549,31.9048421 6.36737255,30.48 6.36737255,28.9414737 C6.31215686,25.296 7.95356863,23.4138947 10.4985098,22.7292632 L10.4985098,22.6181053 C7.95105882,21.9334737 6.36737255,20.1069474 6.36737255,16.4614737 C6.36737255,14.9229474 6.5932549,13.5562105 6.82415686,12.1288421 C6.98980392,10.7621053 7.21568627,9.39536842 7.21568627,8.08421053 C7.21568627,5.00968421 6.02603922,3.24126316 2.6854902,3.18568421 L1.7267451,3.18568421 L1.7267451,0.0505263158 L2.85866667,0.0505263158 C7.67247059,0.0505263158 11.123451,2.27115789 11.123451,7.51578947 C11.123451,9.05178947 10.8975686,10.6458947 10.6716863,12.3031579 C10.4483137,13.8416842 10.214902,15.4357895 10.214902,17.0324211 C10.214902,19.0256842 10.7846275,21.2488421 14.8028235,21.2488421 L14.8028235,24.1541053 L14.8028235,24.1541053 Z" id="Shape" fill="#50B34B"></path>
                        <polygon id="Shape" fill="#50B34B" points="7.52439216 31.4728421 38.8492549 22.5271579 38.8492549 22.5271579 8.26478431 13.9604211 10.5010196 22.7292632"></polygon>
                        <ellipse id="Oval" fill="#9ED844" cx="32.6952157" cy="22.5271579" rx="9.71545098" ry="9.77936842"></ellipse>
                    </g>
                </g>
            </g>
        </g>
    </g>
</svg>