<?xml version="1.0" encoding="UTF-8"?>
<svg width="50px" height="50px" viewBox="0 0 50 50" version="1.1" xmlns="http://www.w3.org/2000/svg" xmlns:xlink="http://www.w3.org/1999/xlink">
    <!-- Generator: Sketch 46.2 (44496) - http://www.bohemiancoding.com/sketch -->
    <title>icons/vas-control-trim</title>
    <desc>Created with Sketch.</desc>
    <defs></defs>
    <g id="Symbols" stroke="none" stroke-width="1" fill="none" fill-rule="evenodd">
        <g id="Labels" transform="translate(-5226.000000, -980.000000)"></g>
        <g id="icons/vas-control-trim" fill-rule="nonzero">
            <g id="tl_trim_btn" transform="translate(7.000000, 10.000000)">
                <path d="M1.11312,13.4067 C3.42,13.4067 3.74544,12.1307 3.74544,10.98665 C3.74544,10.07025 3.61296,9.1553 3.48336,8.27225 C3.35376,7.32395 3.22272,6.409 3.22272,5.5245 C3.22272,2.5143 5.20416,1.23975 7.96608,1.23975 L8.61408,1.23975 L8.61408,3.03775 L8.064,3.03775 C6.14736,3.0711 5.46624,4.0861 5.46624,5.8493 C5.46624,6.6033 5.59584,7.38775 5.69088,8.1722 C5.82336,8.99 5.95296,9.77445 5.95296,10.65895 C5.95296,12.7513 5.04144,13.79965 3.58128,14.19115 L3.58128,14.2564 C5.04288,14.64935 5.98608,15.7296 5.95296,17.82195 C5.95296,18.705 5.82336,19.5228 5.69088,20.3406 C5.59584,21.12505 5.46624,21.91095 5.46624,22.6954 C5.46624,24.52675 6.24528,25.50695 8.064,25.5403 L8.61552,25.5403 L8.61552,27.33975 L7.9344,27.33975 C5.26896,27.33975 3.22416,26.1609 3.22416,22.8578 C3.22416,21.97475 3.3552,21.0598 3.4848,20.17675 C3.6144,19.2589 3.74688,18.3773 3.74688,17.52615 C3.71376,16.4807 3.38976,15.0742 1.11456,15.0742 L1.11456,13.4067 L1.11312,13.4067 Z" id="Shape" fill="#50B34B"></path>
                <path d="M35.45856,15.573 C33.18336,15.573 32.85936,16.98095 32.82624,18.02495 C32.82624,18.8761 32.95872,19.7577 33.08832,20.67555 C33.21792,21.55715 33.34896,22.4721 33.34896,23.3566 C33.34896,26.6597 31.30272,27.83855 28.63872,27.83855 L27.9576,27.83855 L27.9576,26.0391 L28.50912,26.0391 C30.32784,26.0072 31.10688,25.02555 31.10688,23.1942 C31.10688,22.40975 30.97728,21.62385 30.88224,20.8394 C30.74976,20.0216 30.62016,19.2038 30.62016,18.32075 C30.58848,16.2284 31.53168,15.14815 32.99184,14.7552 L32.99184,14.68995 C31.53024,14.29845 30.62016,13.25155 30.62016,11.15775 C30.62016,10.2747 30.74976,9.49025 30.88224,8.671 C30.97728,7.88655 31.10688,7.1021 31.10688,6.3481 C31.10688,4.58345 30.42576,3.5699 28.50912,3.53655 L27.9576,3.53655 L27.9576,1.73855 L28.6056,1.73855 C31.36752,1.73855 33.34896,3.0131 33.34896,6.0233 C33.34896,6.90635 33.21792,7.8213 33.08832,8.77105 C32.95872,9.6541 32.82624,10.56905 32.82624,11.48545 C32.82624,12.6295 33.15312,13.9055 35.45856,13.9055 L35.45856,15.573 L35.45856,15.573 Z" id="Shape" fill="#50B34B"></path>
                <rect id="Rectangle-path" fill="#6A6A6A" x="9.01152" y="8.8972" width="18.55008" height="11.28535"></rect>
            </g>
        </g>
    </g>
</svg>