<?xml version="1.0" encoding="utf-8"?>
<!-- Generator: Adobe Illustrator 16.2.0, SVG Export Plug-In . SVG Version: 6.00 Build 0)  -->
<!DOCTYPE svg PUBLIC "-//W3C//DTD SVG 1.1//EN" "http://www.w3.org/Graphics/SVG/1.1/DTD/svg11.dtd">
<svg version="1.1" id="Layer_1" xmlns="http://www.w3.org/2000/svg" xmlns:xlink="http://www.w3.org/1999/xlink" x="0px" y="0px"
	 width="18px" height="18px" viewBox="0 0 18 18" enable-background="new 0 0 18 18" xml:space="preserve">
<g>
	<path fill="#6B6B6A" d="M14.125,10.635c-0.105,0.074-0.294,0.121-0.497,0.121H4.372c-0.201,0-0.388-0.045-0.494-0.119
		c-0.105-0.074-0.116-0.166-0.026-0.244l3.438-2.98C7.408,7.31,7.656,7.245,7.937,7.245c0.289,0,0.541,0.068,0.657,0.179
		l1.473,1.403l0.455-0.377c0.1-0.083,0.383-0.158,0.599-0.158s0.435,0.045,0.62,0.127c0.039,0.018,0.072,0.037,0.098,0.059
		l2.305,1.912C14.238,10.467,14.23,10.561,14.125,10.635z"/>
	<path fill="#242627" d="M13.628,11.756H4.372c-0.239,0-0.695-0.039-1.067-0.301c-0.307-0.214-0.494-0.54-0.512-0.894
		C2.774,10.214,2.921,9.877,3.194,9.64l3.44-2.983C7.05,6.298,7.628,6.245,7.937,6.245c0.324,0,0.93,0.059,1.345,0.453l0.858,0.817
		c0.344-0.172,0.755-0.223,0.98-0.223c0.355,0,0.71,0.073,1.024,0.212c0.132,0.06,0.24,0.127,0.337,0.208l2.3,1.908
		c0.282,0.23,0.439,0.568,0.428,0.925c-0.013,0.357-0.197,0.688-0.507,0.908C14.422,11.648,14.041,11.756,13.628,11.756z
		 M7.937,7.245c-0.209,0-0.504,0.044-0.648,0.168L3.85,10.395c-0.062,0.054-0.06,0.099-0.059,0.115
		c0.002,0.046,0.031,0.088,0.086,0.126c0.107,0.075,0.292,0.12,0.494,0.12h9.256c0.239,0,0.414-0.063,0.498-0.121
		c0.053-0.038,0.082-0.08,0.083-0.125c0.002-0.042-0.021-0.084-0.063-0.118L11.842,8.48c-0.028-0.023-0.062-0.043-0.106-0.064
		c-0.183-0.081-0.397-0.125-0.615-0.125c-0.193,0-0.49,0.067-0.598,0.157l-0.454,0.379L8.593,7.422
		C8.476,7.312,8.23,7.245,7.937,7.245z"/>
</g>
</svg>
