<?xml version="1.0" encoding="utf-8"?>
<!-- Generator: Adobe Illustrator 16.0.0, SVG Export Plug-In . SVG Version: 6.00 Build 0)  -->
<!DOCTYPE svg PUBLIC "-//W3C//DTD SVG 1.1//EN" "http://www.w3.org/Graphics/SVG/1.1/DTD/svg11.dtd">
<svg version="1.1" id="Layer_1" xmlns="http://www.w3.org/2000/svg" xmlns:xlink="http://www.w3.org/1999/xlink" x="0px" y="0px"
	 width="48px" height="48px" viewBox="0 0 48 48" enable-background="new 0 0 48 48" xml:space="preserve">
<g>
	<g>
		<g>
			<path id="folder_11_" fill-rule="evenodd" clip-rule="evenodd" fill="#555555" d="M2.252,42.845C1.562,42.845,1,42.286,1,41.598
				V11.555c0-0.692,0.562-1.25,1.252-1.25H17.75c0.475,0,0.908,0.268,1.121,0.692l2.158,4.314h18.773
				c0.695,0,1.252,0.56,1.252,1.252v25.034c0,0.688-0.557,1.247-1.252,1.247H2.252z"/>
		</g>
		<g>
			<path id="document_2_" fill="#50B44D" d="M8.417,34.759c-0.446,0.059-0.854-0.253-0.914-0.699L4.258,9.902
				C4.198,9.458,4.51,9.049,4.955,8.989l30.3-4.069c0.214-0.028,0.43,0.029,0.6,0.159l8.6,6.562
				c0.171,0.131,0.282,0.324,0.313,0.539l2.226,16.577c0.061,0.445-0.251,0.854-0.695,0.915L8.417,34.759z M36.615,12.526
				c0.031,0.22,0.235,0.377,0.456,0.347l5.234-0.703l-6.392-4.878L36.615,12.526z"/>
			
				<rect x="9.265" y="10.566" transform="matrix(0.9911 -0.1331 0.1331 0.9911 -2.7329 1.5503)" fill="#50A04D" width="1.938" height="21.314"/>
			
				<rect x="15.025" y="9.791" transform="matrix(0.991 -0.134 0.134 0.991 -2.5967 2.3285)" fill="#50A04D" width="1.938" height="21.315"/>
			
				<rect x="21.747" y="8.889" transform="matrix(0.9911 -0.1331 0.1331 0.9911 -2.3993 3.1971)" fill="#50A04D" width="1.937" height="21.314"/>
			
				<rect x="27.508" y="8.115" transform="matrix(0.991 -0.1341 0.1341 0.991 -2.2599 3.9877)" fill="#50A04D" width="1.937" height="21.315"/>
			
				<rect x="33.27" y="7.341" transform="matrix(0.991 -0.1336 0.1336 0.991 -2.0975 4.735)" fill="#50A04D" width="1.937" height="21.316"/>
		</g>
		<path id="folder_9_" fill-rule="evenodd" clip-rule="evenodd" fill="#6A6A6A" d="M2.383,43.087c-0.69,0-1.129-0.476-0.979-1.065
			l6.565-25.644c0.151-0.59,0.834-1.067,1.525-1.067h15.498c0.475,0,0.85,0.229,0.969,0.59l1.216,3.683H45.95
			c0.694,0,1.129,0.478,0.979,1.069l-5.472,21.368c-0.149,0.59-0.83,1.065-1.523,1.065H2.383z"/>
	</g>
	<path fill="#3B3B3C" d="M18.967,24.66c0.559-0.142,1.019-0.213,1.042-0.216l0.329-1.475l-1.364-0.125l0.51-2.284
		c0,0,1.071-0.252,2.593-0.252c1.623,0,2.479,0.252,2.479,0.252l-0.509,2.284l-1.396,0.124l-0.329,1.476
		c0.027,0.003,0.323,0.032,0.952,0.212c0.628,0.18,0.933,0.326,0.933,0.326c2.766,1.245,4.247,4.235,3.469,7.726
		c-1.028,4.611-5.598,8.348-10.206,8.348c-2.311,0-4.192-0.942-5.364-2.46l2.021-1.99c0.802,1.187,2.181,1.934,3.903,1.934
		c3.22,0,6.413-2.61,7.13-5.828c0.718-3.221-1.311-5.832-4.531-5.832c-3.217,0-6.403,2.604-7.126,5.818h2.375l-4.618,4.547
		l-2.583-4.549h2.314c0.339-1.512,1.06-2.93,2.041-4.152l-0.952-0.879l-0.674,0.53l-1.236-1.146c0,0-0.013-0.367,0.969-1.431
		c0.749-0.813,1.473-1.037,1.473-1.037l1.238,1.143l-0.52,0.669l0.918,0.848c1.097-1.006,2.386-1.798,3.756-2.296
		C18.004,24.943,18.408,24.806,18.967,24.66z"/>
	<path fill="#50964D" d="M36.615,12.526c0.031,0.22,0.235,0.377,0.456,0.347l5.234-0.703l-6.392-4.878L36.615,12.526z"/>
</g>
</svg>
