<?xml version="1.0" encoding="UTF-8"?>
<svg width="45px" height="48px" viewBox="0 0 45 48" version="1.1" xmlns="http://www.w3.org/2000/svg" xmlns:xlink="http://www.w3.org/1999/xlink">
    <!-- Generator: Sketch 46.2 (44496) - http://www.bohemiancoding.com/sketch -->
    <title>icons/vas-control-trim-left-active</title>
    <desc>Created with Sketch.</desc>
    <defs></defs>
    <g id="Icons" stroke="none" stroke-width="1" fill="none" fill-rule="evenodd">
        <g id="Tablet-Portrait" transform="translate(-213.000000, -235.000000)">
            <g id="icons/vas-control-trim-left-active" transform="translate(213.000000, 234.000000)">
                <g id="tl_trim_left_active" transform="translate(0.000000, 1.000000)">
                    <g id="Group" transform="translate(2.000000, 0.000000)" fill="#50B34B">
                        <path d="M13.9221176,25.4236842 C9.83270588,25.4236842 9.25294118,27.9789474 9.19082353,29.8736842 C9.19082353,31.4184211 9.42635294,33.0184211 9.66188235,34.6842105 C9.89482353,36.2842105 10.1277647,37.9447368 10.1277647,39.55 C10.1277647,45.5447368 6.44988235,47.6842105 1.66164706,47.6842105 L0.437411765,47.6842105 L0.437411765,44.4184211 L1.42870588,44.4184211 C4.69764706,44.3605263 6.09788235,42.5789474 6.09788235,39.2552632 C6.09788235,37.8315789 5.86494118,36.4052632 5.69152941,34.9815789 C5.45341176,33.4973684 5.22047059,32.0131579 5.22047059,30.4105263 C5.16352941,26.6105263 6.85623529,24.6526316 9.48329412,23.9394737 L9.48329412,23.8236842 C6.85623529,23.1105263 5.22047059,21.2105263 5.22047059,17.4105263 C5.22047059,15.8078947 5.45341176,14.3842105 5.69152941,12.9 C5.86235294,11.4763158 6.09788235,10.05 6.09788235,8.68421053 C6.09788235,5.48157895 4.87364706,3.63947368 1.42870588,3.57894737 L0.437411765,3.57894737 L0.437411765,0.315789474 L1.60470588,0.315789474 C6.56894118,0.315789474 10.1277647,2.62894737 10.1277647,8.09210526 C10.1277647,9.69473684 9.89482353,11.3552632 9.66188235,13.0789474 C9.42894118,14.6815789 9.19082353,16.3421053 9.19082353,18.0052632 C9.19082353,20.0815789 9.77576471,22.3973684 13.9221176,22.3973684 L13.9221176,25.4236842 L13.9221176,25.4236842 Z" id="Shape" fill-rule="nonzero"></path>
                        <polygon id="Shape" points="6.41364706 33.0473684 38.72 23.7315789 38.72 23.7315789 7.17976471 14.8078947 9.48588235 23.9394737"></polygon>
                        <ellipse id="Oval" cx="32.3736471" cy="23.7315789" rx="10.0190588" ry="10.1868421"></ellipse>
                    </g>
                    <rect id="Rectangle-path" fill="#C42527" fill-rule="nonzero" x="0" y="0" width="3" height="47"></rect>
                </g>
            </g>
        </g>
    </g>
</svg>