<?xml version="1.0" encoding="UTF-8" standalone="no"?>
<!-- Generator: Adobe Illustrator 17.0.0, SVG Export Plug-In . SVG Version: 6.00 Build 0)  -->

<svg
   xmlns:dc="http://purl.org/dc/elements/1.1/"
   xmlns:cc="http://creativecommons.org/ns#"
   xmlns:rdf="http://www.w3.org/1999/02/22-rdf-syntax-ns#"
   xmlns:svg="http://www.w3.org/2000/svg"
   xmlns="http://www.w3.org/2000/svg"
   xmlns:sodipodi="http://sodipodi.sourceforge.net/DTD/sodipodi-0.dtd"
   xmlns:inkscape="http://www.inkscape.org/namespaces/inkscape"
   version="1.1"
   id="Calque_1"
   x="0px"
   y="0px"
   width="20"
   height="20"
   viewBox="0 0 20 20"
   enable-background="new 0 0 36 36"
   xml:space="preserve"
   inkscape:version="0.48.4 r9939"
   sodipodi:docname="longomatch-cancel-rec.svg"><metadata
     id="metadata18"><rdf:RDF><cc:Work
         rdf:about=""><dc:format>image/svg+xml</dc:format><dc:type
           rdf:resource="http://purl.org/dc/dcmitype/StillImage" /></cc:Work></rdf:RDF></metadata><defs
     id="defs16" /><sodipodi:namedview
     pagecolor="#ffffff"
     bordercolor="#666666"
     borderopacity="1"
     objecttolerance="10"
     gridtolerance="10"
     guidetolerance="10"
     inkscape:pageopacity="0"
     inkscape:pageshadow="2"
     inkscape:window-width="733"
     inkscape:window-height="480"
     id="namedview14"
     showgrid="false"
     fit-margin-top="0"
     fit-margin-left="0"
     fit-margin-right="0"
     fit-margin-bottom="0"
     inkscape:zoom="10.893249"
     inkscape:cx="-4.3177954"
     inkscape:cy="10.5"
     inkscape:window-x="0"
     inkscape:window-y="27"
     inkscape:window-maximized="0"
     inkscape:current-layer="Calque_1" /><g
     id="Layer_1"
     transform="translate(-7.079,-8.5)" /><g
     id="g4"
     transform="translate(-7.079,-8.5)"><path
       clip-rule="evenodd"
       d="m 24.797,24.859 c 1.426,-1.728 2.282,-3.943 2.282,-6.359 0,-2.415 -0.856,-4.63 -2.282,-6.359 l -6.359,6.359 6.359,6.359 z"
       id="path6"
       inkscape:connector-curvature="0"
       style="fill:#d13d3c;fill-rule:evenodd" /><path
       clip-rule="evenodd"
       d="m 17.079,17.141 6.359,-6.359 C 21.71,9.356 19.494,8.5 17.079,8.5 c -2.415,0 -4.63,0.856 -6.359,2.282 l 6.359,6.359 z"
       id="path8"
       inkscape:connector-curvature="0"
       style="fill:#d13d3c;fill-rule:evenodd" /><path
       clip-rule="evenodd"
       d="m 17.079,19.859 -6.359,6.359 c 1.728,1.426 3.943,2.282 6.359,2.282 2.415,0 4.63,-0.856 6.359,-2.282 l -6.359,-6.359 z"
       id="path10"
       inkscape:connector-curvature="0"
       style="fill:#d13d3c;fill-rule:evenodd" /><path
       clip-rule="evenodd"
       d="M 9.361,12.141 C 7.935,13.87 7.079,16.085 7.079,18.5 c 0,2.415 0.856,4.631 2.282,6.359 L 15.72,18.5 9.361,12.141 z"
       id="path12"
       inkscape:connector-curvature="0"
       style="fill:#d13d3c;fill-rule:evenodd" /></g></svg>