<?xml version="1.0" encoding="UTF-8" standalone="no"?>
<!-- Generator: Adobe Illustrator 17.0.0, SVG Export Plug-In . SVG Version: 6.00 Build 0)  -->

<svg
   xmlns:dc="http://purl.org/dc/elements/1.1/"
   xmlns:cc="http://creativecommons.org/ns#"
   xmlns:rdf="http://www.w3.org/1999/02/22-rdf-syntax-ns#"
   xmlns:svg="http://www.w3.org/2000/svg"
   xmlns="http://www.w3.org/2000/svg"
   xmlns:sodipodi="http://sodipodi.sourceforge.net/DTD/sodipodi-0.dtd"
   xmlns:inkscape="http://www.inkscape.org/namespaces/inkscape"
   version="1.1"
   id="Calque_1"
   x="0px"
   y="0px"
   width="24"
   height="24"
   viewBox="0 0 24 24"
   enable-background="new 0 0 36 36"
   xml:space="preserve"
   inkscape:version="0.48.4 r9939"
   sodipodi:docname="longomatch-stop.svg"><metadata
     id="metadata16"><rdf:RDF><cc:Work
         rdf:about=""><dc:format>image/svg+xml</dc:format><dc:type
           rdf:resource="http://purl.org/dc/dcmitype/StillImage" /></cc:Work></rdf:RDF></metadata><defs
     id="defs14" /><sodipodi:namedview
     pagecolor="#ffffff"
     bordercolor="#666666"
     borderopacity="1"
     objecttolerance="10"
     gridtolerance="10"
     guidetolerance="10"
     inkscape:pageopacity="0"
     inkscape:pageshadow="2"
     inkscape:window-width="1090"
     inkscape:window-height="658"
     id="namedview12"
     showgrid="false"
     fit-margin-top="0"
     fit-margin-left="0"
     fit-margin-right="0"
     fit-margin-bottom="0"
     inkscape:zoom="25.814101"
     inkscape:cx="13.727"
     inkscape:cy="15.599081"
     inkscape:window-x="0"
     inkscape:window-y="27"
     inkscape:window-maximized="0"
     inkscape:current-layer="Calque_1" /><g
     id="Layer_1"
     transform="translate(-4.273,-6.5)" /><rect
     x="15"
     y="15"
     width="9"
     height="9"
     id="rect4"
     style="fill:#50b44d" /><g
     id="g6"
     transform="matrix(1,0,0,1.0083417,-4.273,-6.5362203)"><path
       d="m 15.156,10.279 c -0.5,0 -0.906,0.402 -0.906,0.898 v 6.793 c 0,0.496 0.406,0.898 0.906,0.898 h 5.849 c 0.5,0 0.906,-0.402 0.906,-0.898 0,-0.496 -0.406,-0.898 -0.906,-0.898 h -4.943 v -5.895 c 0,-0.496 -0.406,-0.898 -0.906,-0.898 z"
       id="path8"
       inkscape:connector-curvature="0"
       style="fill:#6a6a6a" /><path
       d="m 17.277,25.757 c -0.644,0.153 -1.313,0.24 -2.004,0.24 -4.775,0 -8.66,-3.852 -8.66,-8.588 0,-4.736 3.885,-8.588 8.66,-8.588 4.775,0 8.66,3.852 8.66,8.588 0,0.721 -0.093,1.421 -0.263,2.091 h 2.396 c 0.135,-0.677 0.207,-1.375 0.207,-2.091 0,-6.015 -4.935,-10.909 -11,-10.909 -6.065,0 -11,4.894 -11,10.909 0,6.015 4.935,10.909 11,10.909 0.685,0 1.354,-0.067 2.004,-0.189 v -2.372 z"
       id="path10"
       inkscape:connector-curvature="0"
       style="fill:#6a6a6a" /></g></svg>