<?xml version="1.0" encoding="UTF-8" standalone="no"?>
<!-- Generator: Adobe Illustrator 17.0.0, SVG Export Plug-In . SVG Version: 6.00 Build 0)  -->

<svg
   xmlns:dc="http://purl.org/dc/elements/1.1/"
   xmlns:cc="http://creativecommons.org/ns#"
   xmlns:rdf="http://www.w3.org/1999/02/22-rdf-syntax-ns#"
   xmlns:svg="http://www.w3.org/2000/svg"
   xmlns="http://www.w3.org/2000/svg"
   xmlns:sodipodi="http://sodipodi.sourceforge.net/DTD/sodipodi-0.dtd"
   xmlns:inkscape="http://www.inkscape.org/namespaces/inkscape"
   version="1.1"
   x="0px"
   y="0px"
   width="24"
   height="24"
   viewBox="0 0 24 24"
   enable-background="new 0 0 36 36"
   xml:space="preserve"
   id="svg2"
   inkscape:version="0.48.4 r9939"
   sodipodi:docname="longomatch-resume-clock.svg"><metadata
     id="metadata20"><rdf:RDF><cc:Work
         rdf:about=""><dc:format>image/svg+xml</dc:format><dc:type
           rdf:resource="http://purl.org/dc/dcmitype/StillImage" /><dc:title /></cc:Work></rdf:RDF></metadata><defs
     id="defs18" /><sodipodi:namedview
     pagecolor="#ffffff"
     bordercolor="#666666"
     borderopacity="1"
     objecttolerance="10"
     gridtolerance="10"
     guidetolerance="10"
     inkscape:pageopacity="0"
     inkscape:pageshadow="2"
     inkscape:window-width="1252"
     inkscape:window-height="726"
     id="namedview16"
     showgrid="false"
     fit-margin-top="0"
     fit-margin-left="0"
     fit-margin-right="0"
     fit-margin-bottom="0"
     inkscape:zoom="20.8"
     inkscape:cx="15.835712"
     inkscape:cy="6.8398606"
     inkscape:window-x="9"
     inkscape:window-y="296"
     inkscape:window-maximized="0"
     inkscape:current-layer="svg2" /><g
     id="Layer_1"
     transform="translate(-4.1800002,-7.5909092)" /><g
     id="g6"
     transform="matrix(1,0,0,1.0083417,-5.18,-6.5362203)"><path
       style="fill:#6a6a6a"
       inkscape:connector-curvature="0"
       id="path8"
       d="m 16.064,10.279 c -0.5,0 -0.906,0.402 -0.906,0.898 v 6.793 c 0,0.496 0.406,0.898 0.906,0.898 h 5.849 c 0.5,0 0.906,-0.402 0.906,-0.898 0,-0.496 -0.406,-0.898 -0.906,-0.898 H 16.97 v -5.895 c -10e-4,-0.495 -0.406,-0.898 -0.906,-0.898 z" /><path
       style="fill:#6a6a6a"
       inkscape:connector-curvature="0"
       id="path10"
       d="m 18.18,25.758 c -0.642,0.153 -1.311,0.239 -2,0.239 -4.775,0 -8.659,-3.852 -8.659,-8.588 0,-4.736 3.885,-8.588 8.659,-8.588 4.775,0 8.66,3.852 8.66,8.588 0,0.722 -0.093,1.422 -0.264,2.091 h 2.397 c 0.135,-0.677 0.207,-1.375 0.207,-2.091 0,-6.015 -4.935,-10.909 -11,-10.909 -6.065,0 -11,4.894 -11,10.909 0,6.015 4.935,10.909 11,10.909 0.684,0 1.351,-0.067 2,-0.188 v -2.372 z" /></g><polygon
     style="fill:#50b44d;fill-opacity:1;fill-rule:evenodd"
     transform="matrix(0.34615385,0,0,0.39805396,13.615385,14.723352)"
     clip-rule="evenodd"
     points="30,12 4,23.305 4,0.695 "
     id="polygon3" /></svg>