<?xml version="1.0" encoding="utf-8"?>
<!-- Generator: Adobe Illustrator 16.0.0, SVG Export Plug-In . SVG Version: 6.00 Build 0)  -->
<!DOCTYPE svg PUBLIC "-//W3C//DTD SVG 1.1//EN" "http://www.w3.org/Graphics/SVG/1.1/DTD/svg11.dtd">
<svg version="1.1" id="Layer_1" xmlns="http://www.w3.org/2000/svg" xmlns:xlink="http://www.w3.org/1999/xlink" x="0px" y="0px"
	 width="170px" height="170px" viewBox="0 0 170 170" enable-background="new 0 0 170 170" xml:space="preserve">
<radialGradient id="SVGID_1_" cx="85" cy="84.4473" r="84.8467" gradientUnits="userSpaceOnUse">
	<stop  offset="0" style="stop-color:#A87C00"/>
	<stop  offset="0.9996" style="stop-color:#D6C187;stop-opacity:0"/>
</radialGradient>
<circle fill="url(#SVGID_1_)" cx="85" cy="84.447" r="84.847"/>
<g>
	<g>
		<g>
			<g>
				<path fill="#BA1818" d="M84.914,117.278l-0.049-0.012l-0.134-0.012c-0.538-0.062-0.965-0.449-1.062-0.965l-3.347-17.92
					c0.011-0.018,0.013-0.071,0.008-0.126l-0.038-0.458l-8.96-0.001c-0.672-0.001-1.219-0.547-1.219-1.218l-0.001-6.479
					c0-0.672,0.547-1.219,1.219-1.219h2.552V69.462l-3.486-4.183c-0.303-0.361-0.369-0.87-0.169-1.295
					c0.2-0.427,0.633-0.702,1.103-0.702l27.339-0.001c0.473,0,0.906,0.276,1.105,0.702s0.134,0.936-0.168,1.299l-3.721,4.467
					l0.001,19.123l2.272-0.001c0.674,0,1.219,0.547,1.219,1.219v6.477c0,0.673-0.547,1.22-1.219,1.22l-8.576-0.001l-0.049,0.497
					l0.006,0.126l-3.341,17.881c-0.097,0.515-0.523,0.903-1.062,0.965l-0.124,0.015c0,0-0.023,0.012-0.028,0.013L84.914,117.278z
					 M84.935,109.793l2.243-12.007l-4.488-0.002L84.935,109.793z"/>
				<path fill="#373737" d="M98.672,63.781c0.276,0,0.532,0.163,0.649,0.413c0.118,0.252,0.079,0.554-0.099,0.767l-3.605,4.329
					l-0.231,0.278v0.362l0.001,18.441v1.001l1.001-0.001l1.775-0.001c0.394,0,0.715,0.322,0.715,0.719v6.477
					c0,0.396-0.322,0.72-0.719,0.72l-8.123-0.001H89.13l-0.089,0.902c-0.006,0.062-0.007,0.125-0.004,0.189l-3.329,17.819
					c-0.065,0.345-0.362,0.53-0.628,0.562l-0.065,0.007l-0.037,0.01c-0.004,0.001-0.009,0.001-0.013,0.002l-0.017,0.001
					l-0.058-0.007l-0.011-0.003l-0.031-0.002l-0.061-0.007c-0.266-0.031-0.562-0.216-0.627-0.56l-3.33-17.824
					c0.002-0.058,0.002-0.114-0.002-0.172l-0.077-0.917h-0.92l-8.499-0.001c-0.397,0-0.72-0.322-0.72-0.719l-0.001-6.477
					c0-0.396,0.323-0.72,0.719-0.72h2.052h1v-1V69.644v-0.362l-0.232-0.278l-3.372-4.046c-0.178-0.212-0.216-0.511-0.098-0.762
					c0.118-0.251,0.373-0.414,0.65-0.414l27.339-0.001H98.672 M84.935,112.515l0.983-5.26l1.642-8.785l0.221-1.183l-1.203-0.001
					l-3.285-0.002l-1.205-0.001l0.222,1.185l1.643,8.787L84.935,112.515 M98.672,62.781c-0.001,0-0.002,0-0.003,0L71.33,62.782
					c-0.665,0-1.273,0.387-1.556,0.989c-0.284,0.604-0.191,1.316,0.237,1.828l3.37,4.044V88.37H71.33
					c-0.947,0-1.718,0.771-1.719,1.719l0.001,6.478c-0.001,0.949,0.771,1.718,1.719,1.719l8.5,0.001
					c0.005,0.059-0.013,0.115-0.002,0.176l3.348,17.921c0.143,0.757,0.766,1.285,1.496,1.369c0.006,0.003,0.007,0.003,0.011,0.004
					c0.014,0.004,0.026,0.002,0.036,0.005c0.048,0.002,0.091,0.023,0.139,0.023c0.001,0,0.002,0,0.003,0c0.003,0,0.006,0,0.009,0
					c0.021,0,0.042-0.005,0.063-0.006c0.02,0.003,0.038,0.006,0.059,0.006c0.004,0,0.008,0,0.012,0c0.001,0,0.002,0,0.003,0
					c0.049,0,0.091-0.021,0.141-0.022c0.012-0.002,0.021-0.002,0.033-0.004c0.004-0.002,0.006-0.005,0.014-0.007
					c0.729-0.084,1.354-0.611,1.496-1.37l3.348-17.918c0.01-0.062-0.008-0.118-0.002-0.178l8.123,0.001
					c0.947,0,1.719-0.771,1.719-1.72V90.09c0-0.951-0.766-1.719-1.715-1.719c-0.002,0-0.003,0-0.004,0l-1.772,0.001l-0.001-18.441
					l3.605-4.329c0.427-0.514,0.518-1.228,0.236-1.83C99.944,63.168,99.339,62.781,98.672,62.781L98.672,62.781z M84.935,107.071
					l-1.643-8.787l3.284,0.002L84.935,107.071L84.935,107.071z"/>
			</g>
		</g>
	</g>
	<text transform="matrix(1 0 0 1 78.8447 88.5088)" fill="#FFFFFF" font-family="'Roboto-Regular'" font-size="24.8732">?</text>
</g>
</svg>
