<?xml version="1.0" encoding="utf-8"?>
<!-- Generator: Adobe Illustrator 15.1.0, SVG Export Plug-In . SVG Version: 6.00 Build 0)  -->
<!DOCTYPE svg PUBLIC "-//W3C//DTD SVG 1.1//EN" "http://www.w3.org/Graphics/SVG/1.1/DTD/svg11.dtd">
<svg version="1.1" id="Layer_1" xmlns="http://www.w3.org/2000/svg" xmlns:xlink="http://www.w3.org/1999/xlink" x="0px" y="0px"
	 width="28px" height="28px" viewBox="3 -2 28 28" enable-background="new 3 -2 28 28" xml:space="preserve">
<g>
	<path fill="#6B6B6A" d="M30,12c0-5.396-4.234-9.808-9.553-10.12v2.256c4.074,0.307,7.296,3.713,7.296,7.864
		c0,4.152-3.223,7.559-7.296,7.864v2.256C25.766,21.808,30,17.396,30,12z"/>
	<path fill="#6B6B6A" d="M25.641,12c0-3.081-2.418-5.6-5.454-5.778v1.288c2.326,0.176,4.166,2.12,4.166,4.492
		c0,2.371-1.84,4.316-4.166,4.492v1.287C23.224,17.6,25.641,15.08,25.641,12z"/>
	<path fill="#6B6B6A" d="M18.326,2.076l-6.317,5.471H5.805C4.808,7.547,4,8.44,4,9.542v4.667c0,1.1,0.808,1.994,1.805,1.994h5.917
		l6.605,5.721V2.076z"/>
	<g>
		<path fill="#6B6B6A" d="M20.445,9.862v4.275c1.181,0,2.137-0.957,2.137-2.138C22.583,10.819,21.626,9.862,20.445,9.862z"/>
	</g>
</g>
</svg>
