<?xml version="1.0" encoding="UTF-8"?>
<svg width="24px" height="24px" viewBox="0 0 24 24" version="1.1" xmlns="http://www.w3.org/2000/svg" xmlns:xlink="http://www.w3.org/1999/xlink">
    <!-- Generator: Sketch 47.1 (45422) - http://www.bohemiancoding.com/sketch -->
    <title>Icon/lm-team-shield</title>
    <desc>Created with Sketch.</desc>
    <defs>
        <path d="M19.4275793,4.99909543 C19.271068,4.97794525 19.1145566,4.9610251 18.9538153,4.94410496 C18.4715912,4.8891145 18.0147473,4.83412403 17.5663635,4.7368332 C15.8362788,4.35612998 14.1696447,3.58203341 12.3295791,2.30033255 C12.080007,2.12690108 11.9023455,2 11.6400833,2 C11.377821,2 11.1916995,2.13113111 10.9505874,2.29187247 C8.49716661,3.98811686 6.27216774,4.84681414 3.95833813,4.99486539 C3.69184587,5.01178554 3.41689353,5.05831593 3.21385181,5.28250783 C3.01504013,5.5024697 3.00235002,5.78165206 3.00235002,6.02699414 L3.00235002,7.76553888 C2.99811998,9.37295251 2.99811998,11.0311266 3.01504013,12.6681504 C3.01927016,13.2392053 3.09541081,13.8314103 3.23077196,14.4320754 C3.54802465,15.8279872 4.28405089,17.0885379 5.46846093,18.2898681 C6.98281377,19.8211411 8.88632991,21.0055511 11.2932203,21.9107788 C11.3989712,21.9488491 11.5131822,21.9699993 11.6358532,21.9699993 C11.7881345,21.9699993 11.9446458,21.9403891 12.080007,21.8811686 C12.2195982,21.817718 12.3634194,21.7584975 12.5030106,21.699277 C13.0909856,21.4454749 13.7043408,21.1832126 14.2880857,20.87442 C16.2254421,19.8507513 17.6890345,18.6451911 18.7592336,17.1900588 C19.6983016,15.912588 20.1847557,14.6351171 20.2439762,13.2857357 L20.2439762,13.2688155 L20.2905066,5.95508353 C20.2820465,5.56592023 20.1339953,5.08792618 19.4275793,4.99909543 Z M19.2245376,13.2476654 C19.1737771,14.385545 18.7507735,15.4768943 17.9386067,16.5851637 C16.9614684,17.9133949 15.6078569,19.0216643 13.8100917,19.9734224 C13.260187,20.2652949 12.672212,20.519097 12.0969271,20.7644391 C11.9531059,20.8278896 11.8092847,20.8871101 11.6696935,20.9505607 C11.6654635,20.9505607 11.6485433,20.9547907 11.6316232,20.9547907 C9.37701407,20.1045535 7.59616897,18.9962841 6.18756703,17.5749921 C5.1342881,16.513253 4.49132264,15.4092137 4.21637031,14.2036535 C4.09369927,13.674899 4.03024873,13.1546046 4.0260187,12.6596904 C4.00909856,11.0311266 4.01332859,9.37295251 4.01332859,7.76976892 L4.01332859,6.03122418 L4.01332859,6.010074 L4.01755863,6.010074 C6.52596989,5.85356267 8.91171012,4.93564489 11.5301023,3.13364961 C11.5597126,3.11249943 11.6020129,3.08288918 11.6400833,3.05750897 C11.6739235,3.08288918 11.7119939,3.1082694 11.7500642,3.13364961 C13.6747305,4.47457098 15.506336,5.32480819 17.3464016,5.7266616 C17.8413158,5.83664253 18.3446901,5.89586303 18.8353743,5.9508535 C18.9791955,5.96777364 19.1230167,5.98469378 19.2626079,6.00161393 L19.2245376,13.2476654 L19.2245376,13.2476654 Z M11.5265743,4.22311885 C11.2959713,4.29124238 11.1186681,4.36705728 10.9946647,4.45056354 C9.10198002,5.77237981 7.38551085,6.4415287 5.60051344,6.55689919 C5.39492873,6.57008439 5.18281752,6.60634369 5.02618155,6.78104759 C4.87280883,6.95245519 4.86301908,7.17001098 4.86301908,7.36119638 L4.86301908,8.71597564 C4.85975583,9.96856962 4.85975583,11.2607192 4.87280883,12.5363873 C4.87607208,12.9813877 4.93481057,13.4428697 5.03923455,13.9109443 C5.28397825,14.9987233 5.85178364,15.9810207 6.76549347,16.9171699 C7.93373674,18.1104304 9.40219896,19.0333944 11.2589878,19.7388026 C11.3133753,19.7585804 11.4014831,19.7739631 11.523311,19.7849508 L11.5265743,4.22311885 Z" id="path-1"></path>
    </defs>
    <g id="Symbols" stroke="none" stroke-width="1" fill="none" fill-rule="evenodd">
        <g id="Labels" transform="translate(-104.000000, -2092.000000)"></g>
        <g id="Icon/lm-team-shield">
            <rect id="Bounding-Box" x="0" y="0" width="24" height="24"></rect>
            <mask id="mask-2" fill="white">
                <use xlink:href="#path-1"></use>
            </mask>
            <use id="Combined-Shape" fill="#444444" fill-rule="nonzero" xlink:href="#path-1"></use>
            <g id="Mixin/Fill/Dark" mask="url(#mask-2)" fill="#222912">
                <rect id="Fill" x="0" y="0" width="24" height="24"></rect>
            </g>
        </g>
    </g>
</svg>