<?xml version="1.0" encoding="utf-8"?>
<!-- Generator: Adobe Illustrator 16.0.0, SVG Export Plug-In . SVG Version: 6.00 Build 0)  -->
<!DOCTYPE svg PUBLIC "-//W3C//DTD SVG 1.1//EN" "http://www.w3.org/Graphics/SVG/1.1/DTD/svg11.dtd">
<svg version="1.1" id="Layer_1" xmlns="http://www.w3.org/2000/svg" xmlns:xlink="http://www.w3.org/1999/xlink" x="0px" y="0px"
	 width="30px" height="64px" viewBox="-0.293 -0.728 30 64" enable-background="new -0.293 -0.728 30 64" xml:space="preserve">
<g>
	<g>
		<line fill="none" stroke="#FFFFFF" stroke-width="0.5" stroke-miterlimit="10" x1="0.439" y1="62.517" x2="29.5" y2="33.456"/>
		<line fill="none" stroke="#FFFFFF" stroke-width="0.5" stroke-miterlimit="10" x1="0.439" y1="33.456" x2="29.5" y2="62.517"/>
	</g>
	<g>
		
			<radialGradient id="SVGID_1_" cx="0.9697" cy="-60.4419" r="11.5439" gradientTransform="matrix(1 0 0 -1 14 -12.4561)" gradientUnits="userSpaceOnUse">
			<stop  offset="0" style="stop-color:#A87C00"/>
			<stop  offset="0.9996" style="stop-color:#020202;stop-opacity:0"/>
		</radialGradient>
		<circle fill="url(#SVGID_1_)" cx="14.97" cy="47.986" r="11.544"/>
		<g>
			<g>
				<g>
					
						<radialGradient id="SVGID_2_" cx="0.9683" cy="-30.999" r="13.5552" gradientTransform="matrix(1 0 0 -1 14 -12.4561)" gradientUnits="userSpaceOnUse">
						<stop  offset="0" style="stop-color:#A87C00"/>
						<stop  offset="0.9996" style="stop-color:#D6C187"/>
					</radialGradient>
					<path fill="url(#SVGID_2_)" d="M14.854,35.926c-0.201-0.027-0.364-0.219-0.405-0.475L12.587,23.79c0.001,0,0.001,0,0.001,0
						c0.007,0,0.008-0.043,0.003-0.087l-0.046-0.449l-5.178-0.001c-0.121,0-0.213-0.067-0.269-0.123
						c-0.119-0.12-0.188-0.3-0.187-0.494L6.91,18.42c0.001-0.334,0.21-0.618,0.457-0.618h1.641V4.954L7.04,2.193
						C6.901,2,6.872,1.714,6.966,1.481c0.08-0.202,0.237-0.331,0.402-0.332H22.57c0.164,0,0.322,0.13,0.402,0.331
						c0.094,0.232,0.062,0.521-0.074,0.715L20.8,5.142v12.659h1.486c0.146,0,0.249,0.095,0.297,0.152
						c0.103,0.119,0.16,0.288,0.16,0.466v4.215c0,0.335-0.209,0.619-0.457,0.619l-4.97-0.001l-0.051,0.494l0.006,0.102L15.416,35.45
						c-0.041,0.256-0.204,0.447-0.405,0.475l-0.088,0.013L14.854,35.926z M14.931,32.642l1.5-9.387l-2.998-0.003L14.931,32.642z"/>
					<path fill="#373737" d="M22.505,1.649c-0.001,0.003,0,0.007,0.004,0.014c0.034,0.086,0.017,0.193-0.017,0.241l-2.006,2.818
						L20.3,4.983v0.319v11.999v1h1h0.918c0.013,0.024,0.025,0.063,0.025,0.118v4.215c0,0.056-0.015,0.095-0.026,0.119l-4.447-0.001
						h-0.906v0.002l-1.018-0.001l-1.826-0.002l-1.174-0.001l0.001,0.003h-0.754l-4.657-0.001c-0.012-0.023-0.024-0.063-0.024-0.119
						l-0.002-4.21c0-0.056,0.014-0.097,0.026-0.121h1.071h1v-1V5.114v-0.32l-0.185-0.26L7.446,1.901
						C7.414,1.857,7.397,1.764,7.442,1.649H22.505 M22.57,0.649H7.367C6.996,0.65,6.658,0.901,6.502,1.294
						C6.344,1.687,6.395,2.15,6.633,2.483l1.875,2.631v12.188H7.367c-0.527,0-0.955,0.5-0.957,1.118l0.002,4.215
						c-0.002,0.617,0.428,1.117,0.955,1.118l4.727,0.001c0.004,0.038-0.006,0.075,0,0.114l1.861,11.662
						c0.078,0.492,0.426,0.836,0.832,0.891c0.004,0.002,0.004,0.002,0.006,0.004c0.008,0.002,0.014,0,0.02,0.002
						c0.026,0.003,0.051,0.016,0.077,0.016c0.001,0,0.002,0,0.003,0c0.002,0,0.004,0,0.006,0c0.01,0,0.021-0.003,0.033-0.004
						c0.011,0.002,0.021,0.005,0.031,0.005c0.002,0,0.005-0.001,0.008-0.001c0.001,0,0.002,0,0.003,0
						c0.026,0,0.051-0.013,0.077-0.014c0.008-0.002,0.012-0.002,0.02-0.004c0.002,0,0.002-0.004,0.008-0.004
						c0.403-0.055,0.752-0.397,0.832-0.892l1.86-11.661c0.004-0.039-0.006-0.076-0.002-0.115l4.519,0.001
						c0.526,0,0.957-0.502,0.957-1.119V18.42c0-0.619-0.427-1.118-0.955-1.118c-0.001,0-0.001,0-0.002,0h-0.986V5.303l2.007-2.818
						c0.235-0.334,0.287-0.798,0.131-1.19C23.279,0.9,22.941,0.649,22.57,0.649L22.57,0.649z M14.932,29.471l-0.912-5.719
						l1.826,0.002L14.932,29.471L14.932,29.471z"/>
				</g>
			</g>
		</g>
		<g>
			<circle fill="none" stroke="#FFFFFF" stroke-miterlimit="10" stroke-dasharray="1.9963,1.9963" cx="14.969" cy="47.986" r="7"/>
		</g>
		<circle fill="#2D2D2D" cx="14.97" cy="47.986" r="0.952"/>
	</g>
</g>
</svg>
