<?xml version="1.0" encoding="utf-8"?>
<!-- Generator: Adobe Illustrator 16.0.0, SVG Export Plug-In . SVG Version: 6.00 Build 0)  -->
<!DOCTYPE svg PUBLIC "-//W3C//DTD SVG 1.1//EN" "http://www.w3.org/Graphics/SVG/1.1/DTD/svg11.dtd">
<svg version="1.1" id="Layer_1" xmlns="http://www.w3.org/2000/svg" xmlns:xlink="http://www.w3.org/1999/xlink" x="0px" y="0px"
	 width="35px" height="35px" viewBox="0 0 35 35" enable-background="new 0 0 35 35" xml:space="preserve">
<circle fill="none" stroke="#BA1818" stroke-miterlimit="10" cx="17.5" cy="17.5" r="14.383"/>
<path fill="#BA1818" d="M21.849,13.146c-0.281-0.282-0.734-0.282-1.017,0l-3.337,3.338l-3.338-3.338
	c-0.282-0.282-0.735-0.282-1.017,0s-0.282,0.735,0,1.017l3.337,3.338l-3.338,3.336c-0.281,0.282-0.281,0.735,0,1.017
	c0.142,0.141,0.323,0.212,0.512,0.212s0.37-0.071,0.51-0.212l3.339-3.338l3.337,3.338c0.142,0.141,0.324,0.212,0.512,0.212
	s0.37-0.071,0.512-0.212c0.282-0.281,0.282-0.734,0-1.017l-3.35-3.336l3.338-3.338C22.131,13.879,22.131,13.428,21.849,13.146z"/>
</svg>
