<?xml version="1.0" encoding="utf-8"?>
<!-- Generator: Adobe Illustrator 16.0.0, SVG Export Plug-In . SVG Version: 6.00 Build 0)  -->
<!DOCTYPE svg PUBLIC "-//W3C//DTD SVG 1.1//EN" "http://www.w3.org/Graphics/SVG/1.1/DTD/svg11.dtd">
<svg version="1.1" id="Layer_1" xmlns="http://www.w3.org/2000/svg" xmlns:xlink="http://www.w3.org/1999/xlink" x="0px" y="0px"
	 width="24px" height="24px" viewBox="0 0 24 24" enable-background="new 0 0 24 24" xml:space="preserve">
<g>
	<path fill="#B2B2B2" d="M1,4.306c0,0.034,0.013,0.064,0.013,0.1c0,0.017,0,0.017,0,0.029L1.026,4.51
		c0.027,0.086,0.04,0.175,0.066,0.261l3.836,16.484c0.041,0.192,0.186,0.367,0.397,0.453C5.484,21.792,8.01,23,11.836,23
		c1.971,0,4.258-0.322,6.756-1.249c0.252-0.088,0.438-0.279,0.492-0.496l3.822-16.484c0.027-0.086,0.053-0.175,0.068-0.261
		l0.012-0.075c0-0.012,0-0.012,0-0.029c0-0.035,0.014-0.066,0.014-0.1c0-0.035-0.014-0.075-0.014-0.118c0-0.002,0-0.021,0-0.032
		C22.723,1.991,17.18,1,12.007,1C6.819,1,1.277,1.991,1.013,4.155c0,0.011,0,0.03,0,0.032C1.013,4.23,1,4.271,1,4.306L1,4.306z
		 M17.496,20.631c-5.516,1.897-9.79,0.516-10.979,0.043L3.191,6.385c2.147,0.84,5.546,1.228,8.816,1.228
		c3.254,0,6.653-0.388,8.797-1.228L17.496,20.631z M12.007,2.378c6.042,0,9.208,1.315,9.299,1.906l-0.053,0.15
		c-0.383,0.615-3.521,1.8-9.247,1.8c-5.741,0-8.88-1.185-9.263-1.8l-0.053-0.15C2.783,3.693,5.948,2.378,12.007,2.378z"/>
</g>
</svg>
